<svg xmlns="http://www.w3.org/2000/svg" viewBox="0 0 33.867 33.867"><style>@media (prefers-color-scheme:dark){.primary{fill:#eee8d5;stroke:#657b83}}</style><path class="primary" fill="#073642" stroke="#839496" d="M8.578 15.438h9.98v3.513h-9.98v8.722h12.155v3.513H3.947V3.643h16.566l-.519 3.512H8.578Zm22.943-6.095q0 3.457-1.613 4.821-1.613 1.356-4.067 1.356h-2.996V3.29h2.792q1.684 0 2.969.497 1.293.487 2.1 1.825.815 1.339.815 3.731zm-2.162 0q0-1.825-.47-2.809-.46-.993-1.187-1.33-.718-.336-1.675-.336H24.9v9.092h1.135q3.323 0 3.323-4.617zm-1.281 8.307q1.266 0 2.176.328.91.319 1.726.994l-1.135 1.35q-1.154-.956-2.664-.956-1.022 0-1.829.506-.806.507-1.285 1.623-.469 1.116-.469 2.87 0 2.55.976 3.77.975 1.21 2.607 1.21.938 0 1.613-.29.676-.301 1.323-.826l1.05 1.341q-.713.703-1.726 1.125-1.003.413-2.335.413-1.67 0-2.973-.778-1.304-.788-2.054-2.308-.74-1.519-.74-3.657 0-2.11.759-3.63.76-1.52 2.063-2.298 1.313-.788 2.917-.788z"/></svg>