<?xml version="1.0" encoding="UTF-8" standalone="no"?>
<!-- Created with Inkscape (http://www.inkscape.org/) -->

<svg
  xmlns="http://www.w3.org/2000/svg"
  viewBox="0 0 33.866666 33.866666"
>
  <style>
    @media (prefers-color-scheme: dark) {
      .primary { fill: #eee8d5; stroke: #657b83 }
    }
  </style>
  <path
    class="primary"
    fill="#073642"
    stroke="#839496"
    d="M 8.5776962,15.438188 H 18.557107 V 18.95094 H 8.5776962 v 8.722005 H 20.732618 v 3.512753 H 3.9472498 V 3.6425248 H 20.513071 L 19.994142,7.1552773 H 8.5776962 Z"
  />
  <path
    class="primary"
    fill="#073642"
    stroke="#839496"
    d="m 31.521148,9.3433004 q 0,3.4561996 -1.612893,4.8209556 -1.612893,1.355894 -4.067682,1.355894 H 22.8452 V 3.2905193 h 2.791546 q 1.68379,0 2.968787,0.4962749 1.29386,0.4874128 2.100307,1.8255826 0.815308,1.3381697 0.815308,3.7309236 z m -2.16234,0 q 0,-1.8255826 -0.469689,-2.8092703 Q 28.428292,5.5414804 27.701604,5.2047224 26.983778,4.8679645 26.026676,4.8679645 h -1.12548 v 9.0924645 h 1.134342 q 3.32327,0 3.32327,-4.6171286 z"
  />
  <path
    class="primary"
    fill="#073642"
    stroke="#839496"
    d="m 28.077952,17.649438 q 1.266148,0 2.175899,0.32826 0.90975,0.318882 1.725712,0.994161 l -1.134844,1.350557 q -1.153601,-0.956645 -2.663599,-0.956645 -1.022297,0 -1.82888,0.506459 -0.806583,0.50646 -1.284905,1.622545 -0.468944,1.116086 -0.468944,2.869935 0,2.551053 0.975403,3.770306 0.975402,1.209875 2.607326,1.209875 0.937887,0 1.613166,-0.290745 0.675279,-0.300124 1.322421,-0.825341 l 1.050433,1.341179 q -0.712794,0.703415 -1.725712,1.125464 -1.003539,0.41267 -2.335339,0.41267 -1.669439,0 -2.973102,-0.778446 -1.303663,-0.787825 -2.053973,-2.307202 -0.740931,-1.519377 -0.740931,-3.65776 0,-2.110246 0.759689,-3.629623 0.759688,-1.519378 2.063351,-2.297824 1.313042,-0.787825 2.916829,-0.787825 z"
  />
</svg>
